<?xml version="1.0" standalone="no"?>
<!DOCTYPE svg PUBLIC "-//W3C//DTD SVG 20010904//EN"
 "http://www.w3.org/TR/2001/REC-SVG-20010904/DTD/svg10.dtd">
<svg version="1.0" xmlns="http://www.w3.org/2000/svg"
 width="1040.000000pt" height="1040.000000pt" viewBox="0 0 1040.000000 1040.000000"
 preserveAspectRatio="xMidYMid meet">
<metadata>
Created by potrace 1.11, written by Peter Selinger 2001-2013
</metadata>
<g transform="translate(0.000000,1040.000000) scale(0.100000,-0.100000)"
fill="#000000" stroke="none">
<path d="M8143 7298 c-26 -30 -81 -123 -133 -228 l-42 -84 6 -111 c4 -60 9
-119 11 -130 2 -11 7 -45 10 -75 8 -77 32 -268 56 -440 21 -150 21 -157 39
-305 6 -49 12 -106 15 -125 2 -19 9 -80 15 -135 6 -55 12 -118 15 -140 2 -22
11 -112 20 -200 9 -88 18 -178 20 -200 2 -22 7 -71 10 -110 8 -93 34 -350 41
-400 25 -199 118 -355 257 -430 91 -50 135 -57 372 -61 187 -2 233 0 310 16
344 73 516 349 516 825 1 159 -16 268 -62 413 -32 100 -74 202 -83 202 -6 0
-156 -250 -190 -317 -14 -29 -26 -62 -26 -74 0 -12 26 -72 59 -133 105 -199
151 -294 151 -313 0 -59 -128 -145 -275 -184 -110 -30 -522 -40 -607 -15 -64
18 -139 80 -169 137 -29 57 -65 267 -94 539 -3 30 -7 71 -10 90 -2 19 -7 62
-10 95 -3 33 -8 76 -10 95 -2 19 -7 60 -9 90 -14 144 -37 380 -41 420 -3 25
-7 72 -10 105 -2 33 -7 87 -10 120 -11 118 -14 151 -20 215 -8 91 -15 177 -20
230 -6 67 -14 156 -20 240 -3 41 -8 91 -10 110 -2 19 -7 85 -11 145 -8 144
-20 168 -61 123z"/>
<path d="M2823 7248 c-34 -70 -83 -218 -116 -348 -33 -132 -27 -342 18 -620 2
-14 11 -79 20 -145 8 -66 24 -185 35 -265 20 -153 47 -358 56 -425 2 -22 7
-51 9 -65 2 -14 7 -47 10 -75 3 -27 12 -99 20 -160 8 -60 21 -173 29 -250 8
-77 19 -169 23 -205 13 -120 6 -358 -15 -451 -11 -50 -15 -95 -11 -107 9 -24
46 -39 61 -24 31 31 104 343 143 612 16 105 16 259 1 335 -2 11 -7 54 -11 95
-4 41 -9 82 -10 90 -2 8 -6 49 -10 90 -3 41 -8 86 -10 100 -2 14 -9 72 -15
130 -6 58 -13 121 -15 140 -4 34 -14 121 -55 505 -11 99 -22 200 -24 225 -18
159 -37 332 -41 375 -3 28 -7 122 -9 210 -5 175 -21 295 -40 295 -7 0 -26 -28
-43 -62z"/>
<path d="M4982 6528 c-48 -78 -115 -223 -138 -300 -24 -77 -9 -195 61 -508 81
-365 109 -528 107 -634 -5 -235 -131 -389 -368 -450 -87 -22 -109 -25 -224
-32 -207 -11 -266 -10 -345 2 -179 27 -263 84 -298 202 -20 65 -36 94 -48 87
-23 -15 -95 -192 -133 -327 -32 -112 -12 -197 64 -268 82 -78 189 -110 387
-117 215 -8 396 28 563 112 183 91 267 174 400 389 36 58 67 106 70 106 3 0
25 -53 49 -117 75 -204 145 -337 216 -409 108 -110 217 -143 476 -144 142 0
147 1 203 30 127 65 217 158 446 463 36 48 69 87 73 87 5 0 57 -27 116 -60
221 -123 430 -210 504 -210 74 0 157 79 225 215 71 144 77 204 38 388 -45 206
-141 431 -217 504 -48 47 -86 61 -165 62 -85 1 -127 -20 -209 -103 -70 -72
-96 -112 -331 -518 -131 -227 -232 -337 -369 -403 -86 -43 -159 -52 -350 -45
-130 5 -145 7 -205 36 -105 50 -165 123 -213 264 -23 68 -73 245 -82 288 -1 9
-8 36 -14 59 -29 109 -140 688 -180 948 -12 72 -25 155 -30 185 -5 30 -15 94
-22 143 -15 104 -28 122 -57 75z m1989 -1313 c69 -36 143 -155 137 -223 -3
-36 -4 -37 -43 -36 -53 1 -232 57 -276 87 -50 33 -52 86 -6 139 47 54 121 67
188 33z"/>
<path d="M1235 6003 c-57 -164 -107 -367 -98 -402 3 -13 23 -23 71 -36 215
-57 462 -195 615 -343 121 -118 209 -271 219 -382 3 -32 -1 -37 -51 -67 -99
-60 -340 -127 -621 -174 -154 -25 -415 -33 -548 -15 -93 12 -94 12 -102 -10
-10 -24 -26 -114 -34 -184 -3 -25 -11 -91 -17 -148 -15 -130 -15 -130 112
-141 309 -25 689 21 929 114 167 64 351 169 387 222 168 244 105 726 -146
1099 -145 217 -334 375 -564 474 -123 52 -131 52 -152 -7z"/>
<path d="M9192 3765 c-77 -87 -186 -267 -178 -292 8 -22 121 -111 217 -172
l70 -44 25 24 c29 28 129 173 170 247 l29 53 -50 45 c-50 45 -211 159 -238
170 -8 3 -27 -9 -45 -31z"/>
</g>
</svg>
